<?xml version="1.0" encoding="utf-8"?>
<!-- Generator: Adobe Illustrator 24.0.1, SVG Export Plug-In . SVG Version: 6.00 Build 0)  -->
<svg version="1.1" id="Layer_1" xmlns="http://www.w3.org/2000/svg" xmlns:xlink="http://www.w3.org/1999/xlink" x="0px" y="0px"
	 viewBox="0 0 400 400" style="enable-background:new 0 0 400 400;" xml:space="preserve">
<style type="text/css">
	.st0{fill:#6278F7;}
	.st1{fill:#FFFFFF;}
	.st2{fill:none;stroke:#FFFFFF;stroke-width:10;stroke-miterlimit:10;}
</style>
<circle class="st0" cx="200.5" cy="200.5" r="200"/>
<path class="st1" d="M234,301h-5V96h5c2.8,0,5,2.2,5,5v195C239,298.8,236.8,301,234,301z"/>
<path class="st1" d="M272,198.7L272,198.7c0,2.8-2.2,5-5,5h-67c-2.8,0-5-2.2-5-5l0,0c0-2.8,2.2-5,5-5h67
	C269.8,193.7,272,195.9,272,198.7z"/>
<path class="st1" d="M239,101v5h-39c-2.8,0-5-2.2-5-5v0c0-2.8,2.2-5,5-5h34C236.8,96,239,98.2,239,101z"/>
<path class="st1" d="M239,291v5c0,2.8-2.2,5-5,5h-34c-2.8,0-5-2.2-5-5l0,0c0-2.8,2.2-5,5-5H239z"/>
<circle class="st2" cx="163.5" cy="199.5" r="22"/>
<path class="st2" d="M182.5,317.5h-38c-1.1,0-2-0.9-2-2v-38c0-1.1,0.9-2,2-2h38c1.1,0,2,0.9,2,2v38
	C184.5,316.6,183.6,317.5,182.5,317.5z"/>
<path class="st2" d="M164.8,117.3c-0.7,1.5-2.9,1.5-3.6,0l-7.7-15.8l-8.1-16.6c-0.6-1.3,0.3-2.9,1.8-2.9H163h15.8
	c1.5,0,2.4,1.5,1.8,2.9l-8.1,16.6L164.8,117.3z"/>
</svg>
